<?xml version="1.0" standalone="no"?>
<!DOCTYPE svg PUBLIC "-//W3C//DTD SVG 20010904//EN"
 "http://www.w3.org/TR/2001/REC-SVG-20010904/DTD/svg10.dtd">
<svg version="1.0" xmlns="http://www.w3.org/2000/svg"
 width="683.000000pt" height="683.000000pt" viewBox="0 0 683.000000 683.000000"
 preserveAspectRatio="xMidYMid meet">
<metadata>
Created by potrace 1.11, written by Peter Selinger 2001-2013
</metadata>
<g transform="translate(0.000000,683.000000) scale(0.100000,-0.100000)"
fill="#000000" stroke="none">
<path d="M4448 5685 c-3 -4 -12 -7 -20 -8 -14 -3 -89 -46 -98 -57 -3 -4 -12
-11 -21 -16 -58 -32 -214 -180 -252 -237 -22 -32 -24 -42 -16 -67 9 -25 14
-28 47 -24 37 5 122 49 158 82 14 14 26 17 35 11 8 -5 9 -9 2 -9 -6 0 -9 -8
-7 -17 9 -47 11 -94 3 -99 -5 -3 -6 -10 -3 -16 4 -6 8 -25 8 -42 1 -25 -8 -39
-48 -76 -60 -55 -74 -65 -106 -75 -67 -21 -176 -175 -166 -237 6 -36 5 -36 39
-42 30 -5 88 11 99 28 4 6 8 7 8 3 0 -5 6 -2 14 5 8 7 31 26 50 43 20 16 36
35 36 42 0 7 3 13 8 13 4 0 18 18 32 40 24 40 50 57 31 21 -6 -10 -8 -21 -6
-23 3 -3 7 -29 8 -59 9 -148 99 -199 237 -134 80 37 126 74 282 225 l109 105
-6 45 c-3 25 -9 55 -12 67 -5 21 -6 22 -31 5 -15 -9 -31 -20 -37 -25 -32 -26
-169 -118 -195 -132 -36 -18 -77 -13 -95 12 -6 8 -11 42 -9 74 2 57 4 61 57
116 31 32 64 67 74 78 10 11 31 21 48 23 16 2 33 9 37 15 4 7 8 8 8 3 0 -21
83 83 110 138 42 90 33 136 -27 136 -68 0 -145 -57 -231 -170 -22 -28 -71 -80
-76 -80 -1 0 0 57 1 127 2 103 -1 132 -15 155 -9 15 -19 28 -23 28 -4 0 -14 2
-21 5 -8 3 -17 3 -20 0z"/>
<path d="M2180 5490 c0 -3 -37 -5 -83 -6 -83 -1 -199 -8 -317 -20 -36 -4 -77
-8 -92 -8 -16 -1 -28 -3 -28 -6 0 -3 -10 -5 -22 -6 -33 0 -207 -27 -258 -39
-14 -3 -38 -7 -55 -9 -16 -2 -37 -6 -45 -9 -8 -3 -37 -11 -65 -17 -59 -13 -80
-18 -80 -20 0 -1 -9 -3 -20 -5 -11 -2 -44 -11 -72 -20 -29 -9 -58 -18 -65 -19
-7 -2 -22 -6 -33 -10 -11 -5 -33 -12 -50 -18 -86 -29 -297 -119 -327 -140 -14
-10 -30 -18 -36 -18 -5 0 -36 -26 -69 -57 -51 -50 -99 -123 -107 -165 -2 -7
-6 -20 -9 -28 -3 -8 -11 -42 -18 -75 -7 -33 -13 -64 -15 -70 -8 -40 -26 -135
-29 -159 -2 -15 -7 -35 -9 -45 -7 -22 -19 -127 -20 -176 -2 -60 20 -126 50
-152 47 -41 94 -46 374 -48 242 -2 361 -8 381 -21 4 -2 10 0 14 6 4 6 11 8 16
4 19 -11 76 6 103 31 23 21 26 31 21 63 -8 58 -98 128 -172 134 -23 2 -17 18
8 21 8 2 19 5 24 8 8 5 70 22 128 35 4 1 10 3 15 4 4 1 12 3 17 5 6 1 12 3 15
4 3 2 14 4 25 6 11 2 31 6 45 10 14 4 32 8 40 10 8 1 22 5 30 8 14 5 118 28
150 33 8 1 26 5 40 8 14 3 50 10 80 16 30 6 66 13 80 16 14 3 36 7 50 9 14 2
65 11 114 19 48 9 92 14 96 11 5 -3 11 -1 14 4 4 5 17 8 31 6 14 -1 28 1 30 5
3 4 18 6 35 5 16 -1 30 0 30 4 0 3 21 7 48 9 62 5 107 9 107 12 0 1 16 3 35 5
19 1 62 6 95 9 112 12 276 26 390 32 203 10 316 12 313 4 -3 -7 -58 -69 -198
-220 -33 -35 -208 -226 -239 -259 -13 -14 -35 -42 -50 -61 -14 -19 -33 -42
-41 -51 -8 -9 -24 -29 -35 -45 -11 -15 -28 -36 -37 -46 -10 -10 -18 -21 -18
-24 0 -8 -73 -98 -82 -102 -5 -2 -8 -8 -8 -13 0 -5 -7 -17 -16 -26 -9 -10 -47
-61 -86 -113 -38 -52 -75 -102 -81 -110 -7 -9 -32 -45 -57 -80 -24 -36 -48
-66 -52 -68 -4 -2 -8 -8 -8 -13 0 -6 -5 -15 -10 -22 -26 -31 -90 -123 -92
-132 -1 -5 -6 -15 -12 -21 -22 -24 -41 -51 -44 -63 -1 -7 -11 -21 -21 -33 -11
-11 -25 -33 -31 -49 -7 -16 -16 -29 -21 -29 -5 0 -9 -6 -9 -12 0 -7 -11 -26
-25 -42 -14 -16 -25 -32 -25 -36 0 -4 -25 -49 -55 -99 -30 -51 -55 -94 -55
-97 0 -2 -11 -21 -24 -42 -23 -37 -25 -41 -34 -74 -2 -10 -8 -18 -13 -18 -5 0
-9 -4 -9 -10 0 -5 -11 -33 -24 -62 -36 -80 -77 -181 -81 -202 -3 -10 -9 -33
-14 -50 -24 -74 -39 -232 -26 -263 9 -20 12 -29 14 -43 2 -18 64 -81 95 -97
48 -25 127 -41 193 -38 62 3 118 25 183 74 39 29 170 160 170 170 0 3 13 20
28 36 16 17 41 49 57 73 15 23 32 42 36 42 5 0 9 4 9 10 0 9 6 18 52 72 10 11
20 29 23 39 4 11 11 19 16 19 5 0 9 6 9 14 0 8 3 16 8 18 8 3 44 75 48 96 1 8
6 21 10 30 8 19 10 29 12 55 1 9 5 16 10 15 28 -8 183 54 202 81 3 4 28 23 55
42 28 18 52 36 55 39 39 42 204 133 260 144 25 5 50 10 102 21 15 4 39 8 55
10 52 7 92 15 115 24 35 13 76 59 84 94 10 41 6 107 -6 122 -10 13 4 32 25 34
8 1 57 17 115 39 8 3 17 6 20 6 4 1 80 28 120 43 8 3 20 7 25 8 6 2 100 33
210 70 110 36 208 67 218 68 9 1 17 4 17 7 0 4 6 7 13 7 6 0 39 9 72 19 33 10
62 18 65 19 3 1 30 8 60 17 58 18 202 56 233 63 10 2 26 6 35 9 16 5 42 10
100 21 15 3 38 8 52 11 23 6 113 16 135 15 58 -1 125 -31 125 -56 0 -19 -32
-85 -41 -85 -3 0 -12 -13 -19 -30 -7 -17 -15 -30 -19 -30 -4 0 -24 -22 -44
-49 -20 -26 -52 -64 -70 -83 -17 -19 -57 -63 -87 -98 -30 -35 -68 -78 -85 -96
-16 -18 -46 -51 -65 -74 -19 -23 -48 -56 -65 -73 -16 -18 -66 -72 -110 -121
-44 -49 -93 -103 -110 -121 -281 -303 -413 -438 -435 -444 -8 -2 -26 -5 -40
-6 -14 -2 -25 -4 -25 -5 0 -2 -33 -9 -70 -15 -34 -5 -136 -26 -195 -40 -14 -3
-36 -7 -50 -9 -14 -3 -32 -7 -40 -10 -8 -3 -26 -7 -40 -10 -14 -2 -45 -10 -70
-16 -25 -7 -52 -14 -60 -15 -8 -1 -37 -9 -63 -19 -43 -15 -54 -15 -97 -2 -114
34 -215 -14 -300 -142 -16 -25 -30 -51 -30 -59 0 -7 -4 -13 -9 -13 -8 0 -21
-32 -27 -70 -2 -8 -7 -32 -12 -52 -12 -48 -5 -134 15 -172 32 -63 100 -109
183 -124 19 -4 87 -7 150 -7 l116 0 -50 -45 c-122 -112 -266 -279 -266 -309 0
-6 -3 -11 -8 -11 -9 0 -48 -84 -60 -131 -38 -146 88 -289 258 -292 94 -2 143
25 237 128 10 11 36 47 58 79 43 64 291 359 306 364 5 2 9 8 9 13 0 5 8 17 18
27 17 18 67 77 134 156 57 68 73 83 88 84 23 1 100 12 200 29 19 3 51 7 70 9
19 2 51 6 70 10 19 4 50 7 68 8 17 0 32 3 32 6 0 3 12 6 28 7 15 0 43 4 62 7
19 2 58 8 85 11 28 4 68 11 90 15 22 5 41 8 42 6 2 -2 -12 -27 -32 -56 -19
-28 -35 -56 -35 -61 0 -5 -4 -9 -10 -9 -5 0 -10 -5 -10 -11 0 -6 -8 -23 -19
-37 -10 -15 -22 -38 -26 -52 -4 -14 -11 -27 -15 -30 -14 -9 -77 -173 -100
-260 -30 -113 -33 -287 -6 -340 22 -40 33 -52 63 -69 27 -14 128 -6 186 15 23
8 47 16 52 18 6 1 41 17 79 34 38 18 72 32 75 32 3 0 20 7 36 16 17 9 38 18
48 20 9 2 27 7 40 10 12 3 40 7 62 8 37 1 40 3 39 31 -1 17 -5 48 -9 70 -3 22
-8 49 -10 60 -1 11 -8 52 -15 90 -7 39 -12 80 -11 93 1 32 36 105 87 185 24
37 44 72 44 77 0 6 5 10 10 10 6 0 10 7 10 15 0 8 3 15 8 15 4 0 25 29 47 65
38 63 40 65 82 66 24 0 59 1 78 1 19 1 38 -2 42 -5 3 -4 12 -2 20 4 7 6 13 8
13 3 0 -5 17 -10 38 -10 43 -2 197 -20 197 -24 0 -1 7 -3 17 -5 16 -3 47 26
68 65 6 12 18 29 25 38 7 9 50 64 96 122 45 58 89 112 98 121 9 9 39 42 66 74
53 62 69 79 180 194 l70 72 -25 21 c-23 19 -153 88 -165 88 -3 0 -6 0 -7 1
-35 10 -128 31 -158 35 -40 5 -187 15 -243 16 -21 1 -36 5 -35 9 2 4 71 78
153 164 329 345 370 389 445 485 19 25 38 47 42 48 4 2 8 8 8 14 0 5 6 16 13
23 26 30 38 46 92 126 46 68 103 173 105 194 1 3 7 22 14 42 7 21 14 83 14
138 1 85 -2 106 -20 133 -11 17 -28 32 -38 32 -11 0 -21 4 -24 9 -5 8 -25 8
-79 -3 -82 -15 -207 -128 -356 -321 -30 -38 -57 -72 -60 -75 -3 -3 -18 -21
-33 -42 -15 -20 -34 -42 -41 -50 -7 -7 -18 -20 -23 -29 -8 -14 -43 -59 -95
-119 -8 -10 -24 -31 -35 -45 -10 -15 -26 -35 -36 -46 -29 -35 -199 -248 -236
-296 -12 -17 -33 -43 -46 -59 -13 -16 -79 -98 -146 -181 -67 -84 -125 -153
-129 -153 -3 0 -45 -5 -91 -11 -47 -6 -98 -12 -115 -14 -16 -2 -30 -4 -30 -5
0 -1 -18 -4 -40 -6 -22 -2 -67 -6 -100 -10 -33 -4 -70 -8 -82 -8 -13 -1 -23
-3 -23 -6 0 -3 -15 -6 -33 -8 -74 -6 -82 -7 -89 -17 -5 -6 -8 -6 -8 1 0 10 52
60 160 154 33 29 153 135 180 160 15 14 60 54 100 90 94 83 88 77 261 268 19
22 53 64 75 93 21 30 42 56 46 57 5 2 8 10 8 17 0 7 4 15 8 17 9 3 20 22 62
104 14 27 27 51 30 54 5 4 40 107 46 135 1 6 5 24 9 40 9 37 10 211 1 245 -3
14 -9 41 -12 60 -8 46 -57 137 -94 177 -31 33 -120 99 -120 88 0 -3 -10 1 -22
9 -13 8 -38 18 -57 21 -19 3 -38 8 -43 11 -38 23 -479 23 -517 0 -6 -4 -11 -2
-11 4 0 6 -5 8 -11 4 -6 -3 -27 -8 -47 -10 -36 -4 -98 -11 -157 -18 -33 -4
-99 -14 -132 -20 -12 -3 -43 -8 -70 -12 -54 -9 -62 -11 -65 -14 -2 -1 -12 -3
-23 -4 -11 -1 -38 -6 -60 -11 -22 -4 -49 -9 -60 -10 -11 -1 -40 -8 -65 -15
-25 -7 -53 -14 -63 -15 -9 -2 -45 -11 -80 -20 -34 -9 -66 -18 -72 -19 -5 -1
-26 -6 -45 -10 -19 -5 -39 -11 -45 -14 -5 -3 -16 -7 -25 -7 -19 -2 -558 -183
-582 -196 -10 -5 -18 -6 -18 -2 0 8 28 53 39 63 3 3 38 52 76 110 39 57 113
167 166 245 204 299 259 418 254 547 -2 38 -8 74 -13 81 -5 7 -29 68 -52 137
-52 155 -82 218 -129 267 -34 36 -126 90 -168 98 -10 2 -18 4 -18 5 0 2 -37
10 -62 12 -13 1 -23 5 -23 8 0 3 -10 6 -22 6 -38 3 -123 12 -123 14 0 3 -69 9
-151 13 -39 2 -76 7 -83 11 -6 4 -11 2 -11 -4 0 -6 -5 -8 -12 -3 -14 8 -588
11 -588 3z"/>
</g>
</svg>
